<svg width="512" height="512" viewBox="0 0 512 512" fill="none" xmlns="http://www.w3.org/2000/svg">
  <rect width="512" height="512" rx="128" fill="#059669"/>
  <path d="M256 96C256 96 176 156 176 236C176 276.8 208.8 310 250 310C250 310 250 350 290 350C331.2 350 364 317.2 364 276C364 196 284 136 284 136L256 96Z" fill="#ECFDF5"/>
  <path d="M256 136L228 176C228 176 208 206 208 246C208 276.9 233.1 302 264 302L256 136Z" fill="#A7F3D0"/>
  <ellipse cx="256" cy="400" rx="120" ry="20" fill="#047857" opacity="0.3"/>
</svg>
